<svg width="35" height="35" viewBox="0 0 35 35" fill="none" xmlns="http://www.w3.org/2000/svg">
<g clip-path="url(#clip0_814_343)">
<path d="M23.0369 13.7402H1.83914C1.10198 13.7402 0.504395 14.3447 0.504395 15.0902V28.8302C0.504395 29.5758 1.10198 30.1802 1.83914 30.1802H23.0369C23.774 30.1802 24.3716 29.5758 24.3716 28.8302V15.0902C24.3716 14.3447 23.774 13.7402 23.0369 13.7402Z" stroke="black" stroke-width="1.01" stroke-miterlimit="10"/>
<path d="M33.7742 14.62L14.8405 4.96003C14.1781 4.62003 13.3773 4.89003 13.051 5.56003L9.01709 13.64H22.1965C22.3645 13.64 22.5227 13.66 22.6612 13.7C23.5114 13.67 24.3914 14.22 24.3914 15.33V28.25L26.4479 29.3C27.1103 29.64 27.9112 29.37 28.2374 28.7L34.3575 16.43C34.6936 15.76 34.4267 14.95 33.7643 14.62H33.7742Z" stroke="black" stroke-width="1.01" stroke-miterlimit="10"/>
<path d="M12.7347 6.2002L11.479 8.6702L22.1471 14.2002C22.325 14.1302 22.5228 14.0902 22.7502 14.0902C23.6301 14.0902 24.1443 14.6502 24.3123 15.3202L32.5581 19.6002L33.8137 17.1302L12.7347 6.2002Z" fill="black"/>
<path d="M24.2332 16.46H0.623047V19.21H24.2332V16.46Z" fill="black"/>
<path d="M22.4534 25.8901H16.3037V28.0301H22.4534V25.8901Z" fill="black"/>
</g>
<defs>
<clipPath id="clip0_814_343">
<rect width="35" height="35" fill="white"/>
</clipPath>
</defs>
</svg>
