<svg width="35" height="35" viewBox="0 0 35 35" fill="none" xmlns="http://www.w3.org/2000/svg">
<g clip-path="url(#clip0_808_320)">
<path d="M6.24007 20.6098V30.3798C6.24007 30.6298 6.45007 30.8298 6.70007 30.8298H13.8201C14.0701 30.8298 14.2701 30.6298 14.2701 30.3798L14.3601 20.9298C14.3601 20.6798 14.5701 20.4798 14.8201 20.4798L20.0801 20.5198C20.3301 20.5198 20.5301 20.7298 20.5301 20.9698V30.3698C20.5301 30.6198 20.7301 30.8198 20.9801 30.8198H28.2501C28.5001 30.8198 28.7101 30.6198 28.7001 30.3598L28.6501 20.3198H32.6701C33.0701 20.3198 33.2701 19.8398 33.0301 19.5798L24.4301 10.4498L24.4001 5.13984C24.4001 4.87984 24.1901 4.67984 23.9301 4.68984L22.6101 4.71984C22.3601 4.71984 22.1701 4.92984 22.1701 5.16984V8.41984L17.6301 4.27984C17.4501 4.10984 17.1701 4.10984 16.9901 4.27984L1.99007 19.4598C1.71007 19.7498 1.90007 20.2298 2.31007 20.2398L6.25007 20.3098V20.6198L6.24007 20.6098Z" stroke="black" stroke-width="3.1" stroke-miterlimit="10"/>
</g>
<defs>
<clipPath id="clip0_808_320">
<rect width="35" height="35" fill="white"/>
</clipPath>
</defs>
</svg>
