<svg width="35" height="35" viewBox="0 0 35 35" fill="none" xmlns="http://www.w3.org/2000/svg">
<g clip-path="url(#clip0_814_364)">
<path d="M20.9923 30.8601L7.79102 25.1801V10.0601L20.9923 15.6301V30.8601Z" stroke="black" stroke-width="1.19" stroke-miterlimit="10"/>
<path d="M34.4098 25.2301L22.1529 30.8501L22.0054 15.5601L34.3606 10.0601L34.4098 25.2301Z" stroke="black" stroke-width="1.19" stroke-miterlimit="10"/>
<path d="M21.0904 14.6801L8.6958 9.19014L20.992 4.14014L33.485 9.18014L21.0904 14.6801Z" stroke="black" stroke-width="1.19" stroke-miterlimit="10"/>
<path d="M15.0801 12.6899L27.3665 6.6499" stroke="black" stroke-width="1.58" stroke-miterlimit="10"/>
<path d="M9.31548 14.8101H0.501544C0.235335 14.8101 0.0195312 15.0294 0.0195312 15.3001C0.0195312 15.5707 0.235335 15.7901 0.501544 15.7901H9.31548C9.58169 15.7901 9.7975 15.5707 9.7975 15.3001C9.7975 15.0294 9.58169 14.8101 9.31548 14.8101Z" fill="black"/>
<path d="M13.8702 18.1201H5.05623C4.79002 18.1201 4.57422 18.3395 4.57422 18.6101C4.57422 18.8807 4.79002 19.1001 5.05623 19.1001H13.8702C14.1364 19.1001 14.3522 18.8807 14.3522 18.6101C14.3522 18.3395 14.1364 18.1201 13.8702 18.1201Z" fill="black"/>
<path d="M10.6929 21.5698H1.87899C1.61278 21.5698 1.39697 21.7892 1.39697 22.0598C1.39697 22.3304 1.61278 22.5498 1.87899 22.5498H10.6929C10.9591 22.5498 11.1749 22.3304 11.1749 22.0598C11.1749 21.7892 10.9591 21.5698 10.6929 21.5698Z" fill="black"/>
</g>
<defs>
<clipPath id="clip0_814_364">
<rect width="35" height="35" fill="white"/>
</clipPath>
</defs>
</svg>
