<svg width="35" height="35" viewBox="0 0 35 35" fill="none" xmlns="http://www.w3.org/2000/svg">
<g clip-path="url(#clip0_766_213)">
<path d="M31.7658 13.7221H28.828C28.6345 13.1478 28.3927 12.5977 28.1086 12.0718L30.2485 9.93191C31.2218 8.95868 31.2218 7.387 30.2485 6.41377L28.5257 4.69098C27.5525 3.71775 25.9808 3.71775 25.0076 4.69098L22.6924 7.00617C22.2028 6.78251 21.695 6.58907 21.1691 6.43191V3.23415C21.1691 1.86196 20.0568 0.743652 18.6786 0.743652H16.2425C14.8703 0.743652 13.752 1.85591 13.752 3.23415V6.60117C13.2865 6.76438 12.8392 6.95781 12.404 7.16939L9.96183 4.72724C8.9886 3.75401 7.41692 3.75401 6.44369 4.72724L4.7209 6.45004C3.74767 7.42327 3.74767 8.99495 4.7209 9.96818L7.15699 12.4043C6.93333 12.8516 6.74594 13.3171 6.58273 13.7946H3.22781C1.85561 13.7946 0.737305 14.9069 0.737305 16.2851V18.7212C0.737305 20.0934 1.84957 21.2117 3.22781 21.2117H6.69154C6.84266 21.6167 7.01192 22.0157 7.2114 22.3965L4.7209 24.887C3.74767 25.8602 3.74767 27.4319 4.7209 28.4051L6.44369 30.1279C7.41692 31.1012 8.9886 31.1012 9.96183 30.1279L12.5188 27.5709C12.9299 27.7704 13.3591 27.9457 13.7943 28.0968V31.7661C13.7943 33.1383 14.9066 34.2566 16.2848 34.2566H18.7209C20.0931 34.2566 21.2114 33.1443 21.2114 31.7661V28.2419C21.6769 28.1029 22.1242 27.9336 22.5594 27.7402L24.9351 30.1158C25.9083 31.0891 27.48 31.0891 28.4532 30.1158L30.176 28.393C31.1492 27.4198 31.1492 25.8481 30.176 24.8749L28.0421 22.7411C28.3263 22.2272 28.568 21.6953 28.7675 21.1392H31.7658C33.138 21.1392 34.2563 20.0269 34.2563 18.6487V16.2126C34.2563 14.8404 33.144 13.7221 31.7658 13.7221ZM17.4998 22.6927C14.6345 22.6927 12.3073 20.3654 12.3073 17.5001C12.3073 14.6348 14.6345 12.3076 17.4998 12.3076C20.3651 12.3076 22.6924 14.6348 22.6924 17.5001C22.6924 20.3654 20.3651 22.6927 17.4998 22.6927Z" stroke="black" stroke-width="2.45" stroke-miterlimit="10"/>
</g>
<defs>
<clipPath id="clip0_766_213">
<rect width="35" height="35" fill="white"/>
</clipPath>
</defs>
</svg>
