<svg width="49" height="49" viewBox="0 0 49 49" fill="none" xmlns="http://www.w3.org/2000/svg">
<g clip-path="url(#clip0_513_360)">
<path d="M24.38 23.57C27.8594 23.57 30.68 20.7494 30.68 17.27C30.68 13.7906 27.8594 10.97 24.38 10.97C20.9006 10.97 18.08 13.7906 18.08 17.27C18.08 20.7494 20.9006 23.57 24.38 23.57Z" fill="black" stroke="black" stroke-width="3.89" stroke-miterlimit="10"/>
<path d="M24.38 46.26C30.72 46.26 36.43 43.53 40.4 39.19C37.28 33.56 31.28 29.74 24.38 29.74C17.48 29.74 11.48 33.56 8.35999 39.19C12.33 43.53 18.03 46.26 24.38 46.26Z" fill="black" stroke="black" stroke-width="3.29" stroke-miterlimit="10"/>
<path d="M24.38 47.45C37.1212 47.45 47.45 37.1212 47.45 24.38C47.45 11.6388 37.1212 1.31 24.38 1.31C11.6388 1.31 1.31 11.6388 1.31 24.38C1.31 37.1212 11.6388 47.45 24.38 47.45Z" stroke="black" stroke-width="2.63" stroke-miterlimit="10"/>
</g>
<defs>
<clipPath id="clip0_513_360">
<rect width="48.76" height="48.76" fill="white"/>
</clipPath>
</defs>
</svg>
